<svg xmlns="http://www.w3.org/2000/svg" xmlns:xlink="http://www.w3.org/1999/xlink" width="72" zoomAndPan="magnify" viewBox="0 0 54 54" height="72" preserveAspectRatio="xMidYMid meet" version="1.0"><defs><filter x="0%" y="0%" width="100%" height="100%" id="e1e7ac61a5"><feColorMatrix values="0 0 0 0 1 0 0 0 0 1 0 0 0 0 1 0 0 0 1 0" color-interpolation-filters="sRGB"/></filter><g/><clipPath id="e709b36b91"><path d="M 0.492188 1 L 51 1 L 51 53 L 0.492188 53 Z M 0.492188 1 " clip-rule="nonzero"/></clipPath><clipPath id="80eac8f8b8"><path d="M 4 1 L 53.257812 1 L 53.257812 46 L 4 46 Z M 4 1 " clip-rule="nonzero"/></clipPath><clipPath id="2926f208dd"><path d="M 7.332031 37.59375 L 9.40625 37.59375 L 9.40625 39.421875 L 7.332031 39.421875 Z M 7.332031 37.59375 " clip-rule="nonzero"/></clipPath><clipPath id="1c28de4f59"><path d="M 9.402344 38.289062 C 8.515625 39.761719 7.632812 39.46875 7.414062 39.175781 C 7.265625 38.878906 7.414062 37.921875 7.707031 37.703125 C 8 37.480469 9.179688 37.777344 9.179688 37.777344 " clip-rule="nonzero"/></clipPath><clipPath id="4ec9b37f7c"><path d="M 14 24.21875 L 34.542969 24.21875 L 34.542969 32.925781 L 14 32.925781 Z M 14 24.21875 " clip-rule="nonzero"/></clipPath><clipPath id="ff63ed5014"><path d="M 14.851562 24.226562 C 35.394531 26.066406 35.394531 29.894531 33.996094 31.296875 C 31.566406 33.652344 16.910156 33.355469 14.554688 30.925781 C 13.230469 29.453125 14.851562 24.226562 14.851562 24.226562 " clip-rule="nonzero"/></clipPath><mask id="cb02b69a4b"><g filter="url(#e1e7ac61a5)"><rect x="-5.4" width="64.8" fill="#000000" y="-5.4" height="64.8" fill-opacity="0.5"/></g></mask><clipPath id="6659dcce48"><path d="M 0 0.21875 L 20.542969 0.21875 L 20.542969 8.925781 L 0 8.925781 Z M 0 0.21875 " clip-rule="nonzero"/></clipPath><clipPath id="dfd463aeb0"><path d="M 0.851562 0.226562 C 21.394531 2.066406 21.394531 5.894531 19.996094 7.296875 C 17.566406 9.652344 2.910156 9.355469 0.554688 6.925781 C -0.769531 5.453125 0.851562 0.226562 0.851562 0.226562 " clip-rule="nonzero"/></clipPath><clipPath id="e6712c4def"><rect x="0" width="21" y="0" height="9"/></clipPath><clipPath id="c76143a4ef"><path d="M 13.519531 17.289062 L 41.335938 17.289062 L 41.335938 27.335938 L 13.519531 27.335938 Z M 13.519531 17.289062 " clip-rule="nonzero"/></clipPath><clipPath id="f5a3a4b635"><path d="M 19.34375 27.320312 C 13.671875 25.992188 13.523438 25.625 13.523438 25.332031 C 13.523438 24.960938 13.746094 24.449219 14.1875 24.226562 C 15.292969 23.636719 19.046875 24.59375 21.402344 24.449219 C 23.90625 24.375 26.191406 24.078125 28.839844 23.5625 C 32.082031 22.902344 39.371094 21.207031 39.296875 20.542969 C 39.222656 19.734375 21.992188 21.355469 19.414062 20.25 C 18.605469 19.882812 18.164062 19.367188 18.164062 18.925781 C 18.238281 18.554688 19.121094 17.746094 19.5625 17.746094 C 19.929688 17.820312 20.667969 18.777344 20.667969 19.21875 C 20.59375 19.585938 19.5625 20.25 19.121094 20.175781 C 18.753906 20.175781 18.238281 19.441406 18.164062 19.070312 C 18.164062 18.703125 18.457031 18.113281 19.046875 17.820312 C 20.519531 17.011719 25.96875 17.453125 29.355469 17.597656 C 32.597656 17.671875 36.792969 17.597656 38.78125 18.484375 C 39.960938 18.925781 40.84375 19.734375 41.136719 20.472656 C 41.359375 20.988281 41.359375 21.722656 40.917969 22.238281 C 40.105469 23.269531 37.53125 23.933594 35.101562 24.59375 C 31.417969 25.550781 24.570312 26.582031 20.742188 26.730469 C 18.164062 26.878906 15.367188 26.949219 14.335938 26.363281 C 13.820312 26.066406 13.523438 25.699219 13.523438 25.332031 C 13.523438 24.960938 13.746094 24.375 14.1875 24.226562 C 15.21875 23.785156 19.414062 24.59375 20.226562 25.332031 C 20.59375 25.625 20.742188 26.214844 20.667969 26.507812 C 20.519531 26.878906 19.34375 27.320312 19.34375 27.320312 " clip-rule="nonzero"/></clipPath><clipPath id="5cdbba31d9"><path d="M 9.277344 4.457031 L 45 4.457031 L 45 46.808594 L 9.277344 46.808594 Z M 9.277344 4.457031 " clip-rule="nonzero"/></clipPath><clipPath id="dc7734336c"><path d="M 29.578125 14.800781 C 31.566406 18.484375 22.433594 25.773438 20.742188 24.890625 C 19.195312 24.003906 20.226562 15.464844 21.257812 13.035156 C 21.84375 11.707031 22.730469 11.191406 23.761719 10.457031 C 25.011719 9.425781 27.148438 8.320312 28.546875 7.878906 C 29.503906 7.511719 30.3125 7.511719 31.199219 7.511719 C 32.15625 7.511719 32.964844 7.511719 33.921875 7.804688 C 35.320312 8.246094 37.457031 9.132812 38.78125 10.308594 C 40.035156 11.414062 41.210938 13.328125 41.875 14.726562 C 42.316406 15.609375 42.390625 16.421875 42.539062 17.304688 C 42.683594 18.261719 42.757812 19 42.539062 20.027344 C 42.316406 21.5 42.023438 23.636719 40.695312 25.109375 C 38.78125 27.246094 32.082031 31.074219 30.386719 30.042969 C 28.988281 29.308594 28.914062 23.636719 29.796875 22.53125 C 30.3125 21.871094 31.566406 22.089844 32.671875 22.089844 C 34.214844 22.164062 36.574219 22.53125 38.265625 23.34375 C 39.960938 24.152344 41.652344 25.847656 42.683594 27.023438 C 43.421875 27.90625 43.714844 28.496094 44.082031 29.601562 C 44.597656 31.074219 44.96875 33.726562 44.894531 35.273438 C 44.894531 36.375 44.746094 37.113281 44.304688 38.070312 C 43.714844 39.542969 42.539062 41.679688 41.136719 42.929688 C 39.8125 44.183594 38.265625 45.65625 36.132812 45.726562 C 32.597656 45.800781 25.675781 41.75 21.84375 38.660156 C 18.53125 35.859375 16.175781 31.8125 14.113281 28.644531 C 12.492188 26.066406 10.949219 23.636719 10.210938 21.207031 C 9.546875 19.21875 9.253906 17.304688 9.472656 15.390625 C 9.621094 13.550781 10.652344 11.265625 11.460938 9.867188 C 12.050781 8.910156 12.714844 8.320312 13.449219 7.65625 C 14.113281 6.996094 14.777344 6.40625 15.808594 5.964844 C 17.28125 5.300781 19.636719 4.492188 21.550781 4.492188 C 23.464844 4.492188 25.527344 5.007812 27.222656 5.890625 C 28.914062 6.699219 30.386719 7.953125 31.710938 9.71875 C 33.40625 12.003906 35.027344 16.421875 35.910156 18.851562 C 36.425781 20.398438 36.792969 21.355469 36.941406 22.679688 C 37.089844 24.003906 36.941406 25.40625 36.644531 26.65625 C 36.351562 27.980469 35.835938 29.234375 35.171875 30.410156 C 34.511719 31.515625 33.554688 32.546875 32.597656 33.429688 C 31.566406 34.242188 30.3125 34.976562 29.136719 35.417969 C 27.882812 35.933594 26.558594 36.230469 25.234375 36.230469 C 23.90625 36.300781 22.507812 36.15625 21.257812 35.789062 C 20.003906 35.417969 18.753906 34.828125 17.648438 34.09375 C 16.542969 33.355469 15.511719 32.398438 14.777344 31.296875 C 13.964844 30.265625 13.304688 29.011719 12.933594 27.761719 C 12.492188 26.507812 12.273438 25.183594 12.273438 23.859375 C 12.347656 22.53125 12.566406 21.132812 13.007812 19.882812 C 13.378906 18.628906 14.039062 17.453125 14.851562 16.421875 C 15.660156 15.316406 16.691406 14.359375 17.796875 13.695312 C 18.898438 12.960938 20.152344 12.371094 21.402344 12.003906 C 22.730469 11.707031 24.128906 11.5625 25.378906 11.632812 C 26.707031 11.707031 28.105469 12.003906 29.28125 12.519531 C 30.535156 13.035156 31.710938 13.695312 32.742188 14.578125 C 33.699219 15.464844 34.585938 16.496094 35.246094 17.671875 C 35.910156 18.777344 36.425781 20.101562 36.71875 21.355469 C 37.015625 22.679688 37.089844 24.078125 36.867188 25.332031 C 36.71875 26.65625 36.351562 27.980469 35.835938 29.234375 C 35.246094 30.410156 34.4375 31.515625 33.554688 32.472656 C 32.597656 33.429688 31.492188 34.242188 30.3125 34.902344 C 29.210938 35.492188 27.808594 35.933594 26.558594 36.15625 C 25.234375 36.300781 23.832031 36.300781 22.582031 36.082031 C 21.257812 35.859375 19.929688 35.417969 18.753906 34.757812 C 17.648438 34.167969 16.542969 33.285156 15.585938 32.328125 C 14.703125 31.367188 14.1875 30.484375 13.378906 29.011719 C 12.125 26.507812 9.84375 21.429688 9.472656 18.335938 C 9.179688 16.199219 9.695312 14.066406 10.136719 12.519531 C 10.433594 11.414062 10.949219 10.675781 11.460938 9.867188 C 12.050781 9.058594 12.492188 8.394531 13.449219 7.65625 C 14.703125 6.628906 16.765625 5.375 18.605469 4.859375 C 20.445312 4.417969 22.875 4.566406 24.496094 4.859375 C 25.601562 5.007812 26.261719 5.300781 27.222656 5.890625 C 28.621094 6.699219 31.640625 9.792969 31.710938 9.71875 C 31.710938 9.71875 30.535156 8.320312 30.386719 8.394531 C 30.167969 8.617188 34.730469 17.230469 37.234375 20.914062 C 39.296875 24.078125 44.527344 28.71875 43.9375 29.382812 C 43.347656 30.191406 29.578125 23.417969 29.796875 22.53125 C 29.871094 21.945312 33.996094 22.164062 35.542969 22.386719 C 36.644531 22.53125 37.308594 22.753906 38.265625 23.34375 C 39.664062 24.078125 41.652344 25.847656 42.683594 27.023438 C 43.421875 27.90625 43.714844 28.496094 44.082031 29.601562 C 44.597656 31.074219 45.113281 33.429688 44.894531 35.273438 C 44.746094 37.113281 44.011719 39.175781 43.050781 40.722656 C 42.023438 42.265625 40.105469 43.8125 38.78125 44.625 C 37.898438 45.210938 37.382812 45.433594 36.132812 45.726562 C 33.40625 46.316406 26.851562 47.128906 22.730469 46.390625 C 19.046875 45.726562 14.851562 44.625 12.640625 41.972656 C 10.285156 39.101562 10.0625 33.210938 9.695312 29.085938 C 9.328125 25.40625 9.03125 21.648438 10.285156 18.410156 C 11.535156 15.242188 14.1875 11.78125 17.425781 9.941406 C 21.109375 7.804688 31.492188 6.847656 31.710938 7.511719 C 31.859375 8.101562 22.289062 12.8125 21.992188 12.445312 C 21.84375 12.296875 22.949219 11.046875 23.761719 10.457031 C 24.9375 9.5 26.851562 8.320312 28.546875 7.878906 C 30.238281 7.4375 32.226562 7.4375 33.921875 7.804688 C 35.617188 8.171875 37.457031 9.132812 38.78125 10.234375 C 40.035156 11.414062 41.210938 13.035156 41.875 14.726562 C 42.464844 16.347656 42.757812 18.335938 42.539062 20.027344 C 42.390625 21.796875 41.800781 23.636719 40.695312 25.109375 C 39.371094 26.949219 34.730469 29.894531 34.585938 29.675781 C 34.289062 29.453125 41.949219 20.101562 42.90625 20.617188 C 43.863281 21.058594 42.757812 29.675781 40.328125 32.398438 C 37.75 35.34375 31.199219 37.332031 27.074219 37.1875 C 23.316406 37.039062 19.121094 34.167969 16.691406 32.398438 C 14.996094 31.148438 13.894531 29.894531 13.007812 28.351562 C 12.199219 26.878906 11.609375 24.890625 11.390625 23.488281 C 11.242188 22.53125 11.242188 21.871094 11.460938 20.914062 C 11.757812 19.511719 12.714844 17.304688 13.523438 16.125 C 14.039062 15.316406 14.480469 14.875 15.292969 14.285156 C 16.46875 13.402344 18.605469 12.371094 20.003906 12.003906 C 20.960938 11.78125 21.550781 11.707031 22.582031 11.855469 C 23.980469 11.929688 26.261719 12.59375 27.515625 13.253906 C 28.398438 13.695312 29.578125 14.800781 29.578125 14.800781 " clip-rule="nonzero"/></clipPath><clipPath id="271a6d403e"><path d="M 17.117188 14.238281 L 38.078125 14.238281 L 38.078125 35.726562 L 17.117188 35.726562 Z M 17.117188 14.238281 " clip-rule="nonzero"/></clipPath><clipPath id="9673ed1dcf"><path d="M 38.046875 21.796875 C 38.117188 28.496094 37.308594 30.265625 36.277344 31.515625 C 35.246094 32.84375 33.773438 34.019531 32.300781 34.683594 C 30.753906 35.34375 28.914062 35.714844 27.222656 35.640625 C 25.601562 35.492188 23.761719 34.976562 22.359375 34.09375 C 20.960938 33.210938 19.636719 31.882812 18.753906 30.484375 C 17.867188 29.085938 17.355469 27.246094 17.207031 25.625 C 17.132812 23.933594 17.5 22.089844 18.164062 20.542969 C 18.828125 19.070312 20.003906 17.597656 21.328125 16.566406 C 22.582031 15.539062 24.347656 14.726562 25.96875 14.433594 C 27.589844 14.136719 29.503906 14.285156 31.050781 14.800781 C 32.671875 15.242188 35.46875 17.378906 35.46875 17.378906 " clip-rule="nonzero"/></clipPath></defs><path fill="#ff4a3f" d="M 9.9375 7.671875 L 10.183594 7.671875 L 9.984375 7.570312 Z M 10.183594 7.71875 Z M 10.574219 7.371094 C 10.574219 7.421875 10.574219 7.421875 10.625 7.421875 L 10.820312 7.273438 C 10.722656 7.222656 10.671875 7.222656 10.574219 7.371094 Z M 10.769531 7.273438 Z M 8.757812 8.414062 Z M 8.660156 8.710938 L 8.804688 8.613281 C 8.855469 8.5625 8.855469 8.511719 8.855469 8.511719 L 8.757812 8.511719 L 8.660156 8.710938 C 8.609375 8.660156 8.609375 8.710938 8.660156 8.710938 Z M 9.738281 7.273438 L 9.691406 7.273438 L 9.59375 7.371094 L 9.738281 7.371094 Z M 8.707031 8.464844 L 9.003906 8.214844 C 9.050781 8.164062 9.050781 8.117188 9.050781 8.066406 L 8.90625 8.066406 L 8.316406 8.613281 L 8.21875 8.808594 L 8.5625 8.511719 Z M 8.167969 8.859375 Z M 8.167969 8.859375 " fill-opacity="1" fill-rule="nonzero"/><path fill="#ff4a3f" d="M 4.976562 12.480469 L 4.976562 12.378906 C 5.015625 12.148438 5.128906 11.96875 5.320312 11.835938 L 5.761719 11.535156 L 6.007812 11.238281 L 6.351562 10.894531 L 6.546875 10.695312 L 6.742188 10.546875 C 6.921875 10.441406 7.054688 10.292969 7.136719 10.097656 L 7.332031 9.851562 C 7.527344 9.660156 7.691406 9.445312 7.824219 9.207031 L 7.921875 9.058594 L 8.070312 8.960938 L 7.972656 8.808594 L 8.167969 8.5625 C 8.5625 8.265625 8.855469 7.867188 9.25 7.570312 L 9.394531 7.421875 C 9.449219 7.300781 9.53125 7.199219 9.640625 7.125 L 10.035156 6.925781 L 10.230469 6.925781 C 10.378906 6.867188 10.496094 6.769531 10.574219 6.628906 L 10.574219 6.53125 C 10.722656 6.238281 10.933594 6.007812 11.214844 5.835938 L 11.605469 5.585938 L 11.902344 5.289062 L 12.390625 5.042969 L 12.488281 5.042969 L 11.949219 5.242188 L 11.261719 5.738281 C 10.96875 5.984375 10.574219 6.035156 10.378906 6.429688 L 10.527344 6.429688 C 10.183594 6.53125 9.839844 6.679688 9.691406 7.027344 C 9.542969 7.371094 9.296875 7.324219 9.101562 7.472656 C 9 7.5 8.949219 7.5625 8.953125 7.671875 C 8.5625 7.621094 8.414062 7.917969 8.21875 8.117188 L 8.21875 8.511719 C 7.890625 8.667969 7.628906 8.902344 7.429688 9.207031 C 6.644531 9.257812 6.644531 10.25 5.957031 10.445312 L 5.910156 10.445312 C 5.890625 10.480469 5.890625 10.511719 5.910156 10.546875 C 5.761719 10.546875 5.664062 10.644531 5.710938 10.792969 L 5.613281 11.042969 C 5.269531 11.238281 5.320312 11.585938 5.121094 11.882812 C 4.730469 12.132812 4.582031 12.628906 4.289062 12.976562 L 4.433594 13.222656 L 4.535156 13.125 C 4.667969 12.898438 4.8125 12.683594 4.976562 12.480469 Z M 26.683594 1.722656 L 26.980469 1.820312 L 27.078125 1.820312 C 27.296875 1.933594 27.523438 1.964844 27.765625 1.917969 C 28.082031 1.859375 28.390625 1.878906 28.699219 1.96875 L 29.289062 1.96875 C 29.507812 1.921875 29.703125 1.96875 29.878906 2.117188 C 29.886719 2.132812 29.886719 2.152344 29.878906 2.167969 L 29.679688 2.167969 C 29.671875 2.183594 29.671875 2.199219 29.679688 2.214844 L 30.023438 2.214844 C 30.238281 2.132812 30.449219 2.132812 30.664062 2.214844 C 30.761719 2.214844 30.710938 2.265625 30.761719 2.316406 L 31.007812 2.414062 L 30.910156 2.414062 C 30.808594 2.214844 30.664062 2.214844 30.515625 2.214844 C 29.847656 1.902344 29.140625 1.753906 28.402344 1.769531 L 28.011719 1.769531 C 27.433594 1.59375 26.84375 1.527344 26.242188 1.570312 L 26.339844 1.570312 Z M 30.269531 3.257812 Z M 24.917969 2.414062 Z M 30.269531 3.257812 L 30.367188 3.257812 Z M 9.542969 7.371094 Z M 25.308594 2.414062 Z M 33.953125 3.503906 C 34.09375 3.652344 34.257812 3.683594 34.445312 3.605469 L 34.738281 3.605469 C 34.484375 3.390625 34.1875 3.277344 33.855469 3.257812 L 33.511719 3.160156 L 33.757812 3.308594 Z M 32.285156 2.859375 C 32.285156 2.910156 32.332031 2.960938 32.382812 3.011719 L 32.480469 3.011719 L 32.726562 2.859375 C 32.46875 2.699219 32.191406 2.601562 31.890625 2.5625 L 32.234375 2.761719 Z M 35.917969 4.199219 L 36.3125 4.449219 C 36.214844 4.300781 36.113281 4.199219 35.917969 4.199219 Z M 35.917969 4.199219 " fill-opacity="1" fill-rule="nonzero"/><g clip-path="url(#e709b36b91)"><path fill="#ff4a3f" d="M 48.835938 37.8125 L 49.128906 37.019531 L 49.425781 36.277344 C 49.523438 36.027344 49.71875 35.382812 49.820312 34.988281 C 49.839844 34.859375 49.890625 34.742188 49.964844 34.640625 L 50.015625 34.640625 L 50.015625 34.09375 C 50.261719 34.042969 50.210938 33.796875 50.261719 33.648438 L 50.652344 31.316406 C 50.910156 30.292969 50.910156 29.269531 50.652344 28.246094 C 50.699219 27.9375 50.617188 27.675781 50.40625 27.453125 L 50.40625 25.320312 C 50.261719 24.875 50.554688 24.378906 50.210938 23.980469 L 49.820312 22.394531 C 49.828125 22.359375 49.828125 22.328125 49.820312 22.296875 L 49.71875 21.996094 C 49.691406 21.933594 49.691406 21.867188 49.71875 21.800781 L 49.769531 21.800781 C 49.917969 21.800781 49.917969 21.550781 49.917969 21.351562 C 49.886719 21.160156 49.820312 20.976562 49.71875 20.808594 L 49.574219 20.609375 C 49.5 20.503906 49.46875 20.390625 49.472656 20.261719 C 49.492188 19.925781 49.457031 19.597656 49.375 19.269531 L 49.375 18.972656 C 49.277344 18.625 49.179688 18.230469 49.082031 17.882812 L 48.984375 17.636719 C 48.875 17.46875 48.808594 17.289062 48.785156 17.089844 C 48.761719 16.949219 48.710938 16.816406 48.640625 16.691406 L 48.34375 16.199219 C 48.261719 16.121094 48.164062 16.089844 48.050781 16.097656 L 48 16.097656 L 48 15.949219 L 47.902344 15.949219 L 47.902344 15.554688 L 47.855469 15.554688 L 47.855469 15.453125 C 47.855469 15.4375 47.855469 15.421875 47.855469 15.402344 L 47.855469 15.304688 C 47.902344 15.207031 47.902344 15.15625 47.804688 15.058594 C 47.71875 14.972656 47.652344 14.871094 47.609375 14.757812 L 47.511719 14.460938 C 47.445312 14.234375 47.328125 14.035156 47.167969 13.867188 C 47.0625 13.769531 46.980469 13.652344 46.921875 13.519531 L 46.578125 12.726562 C 46.5 12.546875 46.402344 12.382812 46.28125 12.230469 L 45.988281 11.835938 C 45.898438 11.714844 45.832031 11.582031 45.789062 11.4375 L 45.691406 11.289062 C 45.636719 11.214844 45.621094 11.132812 45.644531 11.042969 C 45.644531 10.957031 45.609375 10.894531 45.546875 10.84375 L 45.347656 10.695312 L 45.347656 10.792969 C 45.398438 10.894531 45.347656 10.941406 45.300781 10.941406 L 45.203125 10.941406 L 45.347656 11.4375 L 45.496094 11.6875 L 45.839844 12.132812 L 45.789062 12.132812 L 45.691406 12.03125 L 45.59375 11.933594 C 45.570312 11.785156 45.503906 11.660156 45.394531 11.554688 C 45.285156 11.453125 45.15625 11.398438 45.003906 11.386719 L 45.003906 11.042969 C 44.859375 10.445312 44.21875 10.398438 43.925781 10 C 43.824219 9.753906 43.644531 9.605469 43.382812 9.554688 L 42.992188 9.109375 C 42.578125 8.511719 42.070312 8.015625 41.46875 7.621094 L 41.074219 7.324219 L 40.878906 7.175781 C 40.535156 6.828125 40.386719 6.28125 39.796875 6.28125 L 39.40625 6.035156 L 38.964844 5.6875 C 38.792969 5.296875 38.5 5.082031 38.078125 5.042969 C 37.753906 4.746094 37.378906 4.546875 36.949219 4.449219 L 37.046875 4.546875 L 37.292969 4.746094 L 37.933594 5.09375 C 38.316406 5.300781 38.660156 5.566406 38.964844 5.886719 C 39.183594 6.101562 39.429688 6.28125 39.699219 6.429688 L 39.996094 6.679688 C 40.042969 6.726562 40.09375 6.777344 40.042969 6.828125 L 39.996094 6.828125 L 39.554688 6.679688 C 39.199219 6.609375 38.871094 6.480469 38.570312 6.28125 L 37.980469 5.984375 L 37.34375 5.636719 L 37.246094 5.636719 C 37.097656 5.585938 37.046875 5.4375 36.851562 5.390625 L 36.457031 5.289062 L 35.230469 5.042969 C 35.058594 4.960938 34.910156 4.84375 34.789062 4.695312 C 34.628906 4.6875 34.480469 4.640625 34.347656 4.546875 L 33.855469 4.347656 C 33.386719 4.253906 32.929688 4.121094 32.480469 3.953125 L 32.1875 3.851562 L 31.695312 3.703125 L 31.449219 3.703125 L 31.351562 3.554688 L 31.351562 3.503906 L 30.566406 3.503906 L 30.269531 3.257812 L 30.074219 3.355469 L 29.878906 3.457031 L 29.777344 3.457031 L 29.335938 3.207031 C 29.042969 3.503906 28.796875 3.109375 28.550781 3.160156 L 28.058594 3.011719 C 27.863281 3.125 27.667969 3.125 27.46875 3.011719 L 26.882812 3.011719 C 26.714844 2.980469 26.632812 2.882812 26.636719 2.710938 L 26.78125 2.613281 L 27.078125 2.613281 C 27.105469 2.660156 27.121094 2.707031 27.125 2.761719 C 27.125 2.859375 27.226562 2.859375 27.371094 2.859375 L 27.46875 2.859375 L 27.273438 2.5625 C 27.128906 2.445312 26.964844 2.410156 26.78125 2.464844 L 26.292969 2.613281 L 26.242188 2.613281 C 26.390625 2.710938 26.339844 2.761719 26.339844 2.859375 L 25.554688 2.859375 L 25.359375 2.761719 L 24.964844 2.5625 L 24.917969 2.5625 L 24.574219 2.464844 L 23.441406 2.464844 L 23.640625 2.367188 L 24.03125 2.265625 L 24.179688 2.265625 L 25.015625 2.117188 L 25.554688 2.019531 L 25.851562 1.917969 L 25.308594 1.917969 C 24.753906 1.804688 24.195312 1.804688 23.640625 1.917969 L 23 1.917969 L 21.332031 1.871094 C 20.644531 1.917969 19.957031 1.871094 19.414062 2.464844 C 18.1875 2.265625 17.105469 2.8125 16.027344 3.355469 L 14.945312 3.804688 C 14.246094 3.902344 13.640625 4.199219 13.128906 4.695312 L 13.277344 4.695312 L 13.523438 4.546875 L 13.914062 4.300781 L 14.554688 4 L 15.042969 3.902344 C 15.34375 3.691406 15.671875 3.542969 16.027344 3.457031 L 16.46875 3.308594 L 16.566406 3.308594 C 16.617188 3.40625 16.8125 3.308594 16.910156 3.308594 L 17.007812 3.308594 C 17.058594 3.308594 17.058594 3.355469 17.007812 3.355469 L 16.714844 3.554688 L 17.207031 3.40625 L 17.597656 3.308594 L 16.960938 3.65625 L 16.320312 3.851562 C 16.1875 3.894531 16.089844 3.976562 16.027344 4.101562 L 15.878906 4.347656 L 16.027344 4.347656 L 16.222656 4.25 C 16.328125 4.085938 16.476562 3.988281 16.664062 3.953125 L 17.402344 3.703125 L 17.648438 3.703125 C 17.679688 3.6875 17.703125 3.695312 17.722656 3.730469 C 17.738281 3.761719 17.730469 3.785156 17.695312 3.804688 C 17.597656 3.902344 17.402344 3.953125 17.304688 4.050781 L 17.402344 4.050781 L 15.828125 4.496094 L 13.964844 5.289062 C 13.636719 5.585938 13.261719 5.785156 12.835938 5.886719 C 12.582031 6.109375 12.304688 6.292969 12 6.429688 L 11.605469 6.53125 C 11.484375 6.8125 11.273438 6.960938 10.96875 6.976562 L 10.820312 7.222656 C 10.664062 7.449219 10.46875 7.632812 10.230469 7.769531 L 10.183594 7.769531 L 10.183594 7.71875 L 9.984375 7.917969 L 9.492188 8.015625 L 9.25 8.015625 L 9.050781 8.265625 C 9.003906 8.316406 9.003906 8.363281 9.050781 8.363281 L 9.101562 8.363281 C 8.804688 8.660156 8.609375 9.058594 8.21875 9.207031 L 7.578125 9.949219 C 7.285156 10.546875 6.695312 10.742188 6.300781 11.238281 C 5.910156 11.734375 5.613281 13.171875 4.386719 13.371094 L 4.289062 13.222656 L 4.191406 13.46875 C 4.144531 13.613281 4.082031 13.746094 3.992188 13.867188 C 3.773438 14.199219 3.574219 14.546875 3.402344 14.910156 C 3.359375 14.984375 3.34375 15.066406 3.355469 15.15625 C 3.363281 15.296875 3.328125 15.429688 3.257812 15.554688 L 3.011719 16.097656 L 3.109375 16.097656 C 3.257812 16.097656 3.257812 16.246094 3.304688 16.394531 L 3.699219 15.851562 C 3.773438 15.714844 3.871094 15.597656 3.992188 15.503906 C 4.191406 15.40625 4.335938 15.253906 4.433594 15.058594 L 4.582031 14.910156 L 4.777344 14.710938 L 5.074219 14.164062 L 5.171875 14.164062 C 5.222656 14.214844 5.222656 14.214844 5.269531 14.164062 L 5.367188 13.964844 L 5.613281 13.964844 L 5.613281 14.363281 L 5.859375 14.113281 C 5.90625 14.03125 5.90625 13.949219 5.859375 13.867188 C 5.855469 13.808594 5.871094 13.761719 5.910156 13.71875 C 5.972656 13.644531 6.023438 13.5625 6.054688 13.46875 C 6.109375 13.253906 6.242188 13.105469 6.449219 13.023438 L 6.597656 12.925781 L 6.742188 12.777344 C 6.917969 12.648438 7.050781 12.484375 7.136719 12.28125 L 7.039062 12.132812 C 7.039062 12.082031 7.085938 11.984375 7.136719 11.933594 L 7.382812 11.933594 L 7.675781 11.535156 L 7.972656 11.386719 L 8.070312 11.386719 C 7.058594 12.492188 6.160156 13.683594 5.367188 14.957031 L 5.320312 14.957031 L 5.367188 14.957031 C 4.265625 16.695312 3.394531 18.546875 2.765625 20.511719 L 2.519531 20.511719 L 2.273438 20.3125 C 2.175781 20.214844 2.226562 19.964844 2.078125 19.867188 L 2.125 19.867188 C 2.273438 19.617188 2.078125 19.269531 2.273438 19.023438 C 2.46875 18.773438 2.324219 18.328125 1.832031 18.429688 C 1.339844 18.527344 1.09375 18.675781 1.195312 19.171875 C 1.292969 19.667969 0.703125 20.0625 0.652344 20.609375 C 0.605469 21.15625 0.40625 20.859375 0.503906 21.054688 L 0.503906 22.988281 C 0.554688 23.386719 0.261719 23.882812 0.898438 24.03125 L 1.539062 24.476562 C 1.585938 24.722656 1.292969 25.269531 1.980469 25.121094 C 1.886719 25.945312 1.839844 26.769531 1.832031 27.601562 C 1.832031 28.144531 1.882812 28.691406 1.882812 29.234375 L 1.882812 29.039062 C 1.832031 28.839844 1.832031 28.640625 1.78125 28.394531 L 1.636719 28.542969 L 1.636719 28.441406 L 1.390625 28.441406 C 1.390625 28.691406 1.339844 28.839844 1.195312 28.890625 C 1.152344 28.964844 1.136719 29.050781 1.144531 29.136719 C 1.144531 29.1875 1.195312 29.285156 1.242188 29.234375 C 1.292969 29.1875 1.4375 29.335938 1.585938 29.433594 C 1.734375 29.535156 1.488281 29.582031 1.390625 29.535156 C 1.292969 29.484375 1.292969 29.582031 1.292969 29.683594 L 1.292969 29.832031 L 1.539062 30.574219 C 1.539062 30.722656 1.488281 30.871094 1.488281 31.019531 C 1.488281 31.160156 1.519531 31.292969 1.585938 31.417969 L 1.4375 31.417969 L 1.4375 31.269531 L 1.09375 31.167969 L 1.09375 30.871094 C 1.109375 30.789062 1.109375 30.707031 1.09375 30.625 C 1.027344 30.328125 0.980469 30.03125 0.949219 29.730469 C 0.855469 29.15625 0.820312 28.578125 0.851562 27.996094 C 0.84375 27.910156 0.859375 27.828125 0.898438 27.75 L 0.898438 27.847656 C 0.921875 27.929688 0.9375 28.011719 0.949219 28.09375 C 0.945312 28.167969 0.964844 28.230469 0.996094 28.292969 C 1.046875 28.394531 1.09375 28.492188 1.195312 28.492188 C 1.292969 28.492188 1.242188 28.441406 1.242188 28.394531 C 1.234375 28.308594 1.21875 28.226562 1.195312 28.144531 C 1.109375 27.9375 1.0625 27.722656 1.046875 27.5 C 1.027344 27.371094 0.976562 27.257812 0.898438 27.152344 C 0.820312 27.015625 0.789062 26.867188 0.800781 26.707031 L 0.800781 26.3125 C 0.800781 26.164062 0.851562 26.011719 0.851562 25.863281 C 0.863281 25.792969 0.847656 25.726562 0.800781 25.667969 L 0.75 25.667969 C 0.359375 25.863281 0.40625 25.765625 0.261719 26.460938 L 0.261719 27.351562 C 0.261719 27.699219 0.210938 28.046875 0.261719 28.394531 C 0.253906 28.777344 0.285156 29.15625 0.359375 29.535156 C 0.371094 29.617188 0.371094 29.699219 0.359375 29.78125 C 0.351562 29.933594 0.371094 30.082031 0.40625 30.226562 C 0.449219 30.441406 0.464844 30.65625 0.457031 30.871094 C 0.425781 31.160156 0.460938 31.441406 0.554688 31.714844 C 0.566406 31.78125 0.566406 31.847656 0.554688 31.914062 C 0.546875 32.046875 0.5625 32.179688 0.605469 32.308594 C 0.652344 32.457031 0.683594 32.605469 0.703125 32.757812 C 0.753906 33.125 0.835938 33.488281 0.949219 33.847656 C 0.996094 34.007812 1.03125 34.171875 1.046875 34.34375 C 1.070312 34.46875 1.117188 34.585938 1.195312 34.6875 C 1.320312 34.867188 1.402344 35.066406 1.4375 35.285156 C 1.476562 35.453125 1.527344 35.617188 1.585938 35.78125 L 1.78125 36.472656 C 1.84375 36.738281 1.941406 36.984375 2.078125 37.21875 C 2.253906 37.546875 2.386719 37.894531 2.46875 38.257812 L 2.570312 38.507812 C 2.695312 38.648438 2.777344 38.816406 2.8125 39.003906 C 2.851562 39.148438 2.917969 39.28125 3.011719 39.398438 C 3.066406 39.472656 3.097656 39.554688 3.109375 39.648438 C 3.15625 39.796875 3.207031 39.84375 3.304688 39.796875 L 3.355469 39.796875 L 3.355469 40.242188 L 3.847656 41.234375 L 4.386719 41.828125 L 4.582031 42.027344 C 4.730469 42.175781 4.925781 42.273438 5.023438 42.523438 L 5.222656 42.671875 C 5.308594 42.730469 5.355469 42.8125 5.367188 42.917969 L 5.464844 43.265625 C 5.539062 43.429688 5.636719 43.578125 5.761719 43.710938 L 5.957031 43.8125 L 6.105469 43.8125 C 6.183594 43.839844 6.203125 43.890625 6.152344 43.960938 C 6.144531 44.042969 6.144531 44.125 6.152344 44.207031 C 6.1875 44.316406 6.253906 44.398438 6.351562 44.457031 L 6.449219 44.457031 C 6.644531 44.40625 6.84375 44.554688 7.039062 44.804688 L 7.085938 44.804688 C 7.085938 44.753906 7.136719 44.753906 7.085938 44.703125 L 7.085938 44.605469 C 7.085938 44.554688 7.136719 44.503906 7.1875 44.554688 C 7.289062 44.628906 7.335938 44.726562 7.332031 44.851562 L 7.332031 44.953125 C 7.371094 45.160156 7.433594 45.359375 7.53125 45.546875 C 7.773438 45.695312 7.773438 45.695312 7.773438 45.597656 C 7.773438 45.496094 7.773438 45.496094 7.875 45.496094 L 8.070312 45.496094 L 8.167969 45.644531 L 8.5625 45.894531 C 8.90625 46.289062 9.445312 46.242188 9.839844 46.488281 L 10.671875 47.332031 L 10.769531 47.332031 C 10.921875 47.707031 11.183594 47.972656 11.558594 48.125 C 11.671875 48.308594 11.835938 48.40625 12.046875 48.421875 C 12.046875 48.671875 12.34375 48.71875 12.589844 48.769531 C 12.691406 48.886719 12.824219 48.953125 12.980469 48.96875 L 13.078125 48.96875 C 13.28125 49.179688 13.527344 49.261719 13.816406 49.214844 L 14.257812 49.613281 L 15.4375 50.058594 L 15.4375 50.15625 C 15.683594 50.703125 16.273438 50.503906 16.664062 50.652344 L 17.207031 50.851562 L 17.402344 50.851562 C 17.992188 51 18.582031 51.296875 19.21875 51.097656 C 19.199219 51.164062 19.199219 51.230469 19.21875 51.296875 C 19.757812 51.644531 20.398438 51.296875 20.988281 51.496094 C 21.261719 51.597656 21.539062 51.613281 21.820312 51.546875 L 21.871094 51.546875 L 22.265625 51.644531 L 22.410156 51.644531 L 22.855469 51.742188 L 23 51.742188 C 23.082031 51.695312 23.164062 51.695312 23.246094 51.742188 C 23.484375 51.835938 23.730469 51.902344 23.984375 51.941406 L 24.277344 51.941406 C 24.394531 51.875 24.507812 51.875 24.621094 51.941406 L 26.539062 51.941406 C 26.800781 51.96875 27.0625 51.953125 27.324219 51.890625 L 27.8125 51.890625 L 28.058594 51.792969 L 29.679688 51.792969 L 29.976562 51.695312 L 30.222656 51.546875 L 31.300781 51.546875 L 31.300781 51.84375 L 30.664062 51.84375 L 30.074219 51.941406 C 29.878906 51.992188 29.730469 51.941406 29.582031 51.992188 C 29.425781 52.0625 29.261719 52.09375 29.089844 52.089844 L 28.453125 52.238281 L 28.257812 52.238281 C 28.007812 52.195312 27.761719 52.210938 27.519531 52.289062 L 26.636719 52.289062 C 26.488281 52.355469 26.339844 52.355469 26.195312 52.289062 L 23.984375 52.289062 C 23.777344 52.25 23.597656 52.300781 23.441406 52.4375 L 23.296875 52.4375 L 23.148438 52.339844 L 23.148438 52.191406 L 22.558594 52.191406 C 22.355469 52.105469 22.140625 52.054688 21.921875 52.042969 L 20.691406 52.042969 L 20.347656 51.941406 L 20.101562 51.84375 L 19.070312 51.644531 L 18.824219 51.644531 L 18.582031 51.546875 L 17.550781 51.199219 L 16.863281 51 L 15.78125 51 C 15.730469 51 15.730469 51.050781 15.730469 51.097656 L 15.828125 51.097656 C 16.46875 51.347656 17.105469 51.546875 17.746094 51.84375 L 17.894531 51.84375 L 18.335938 51.941406 L 19.023438 52.140625 L 19.660156 52.140625 L 19.957031 52.238281 L 20.300781 52.386719 L 21.132812 52.535156 L 21.675781 52.636719 L 22.214844 52.734375 L 22.609375 52.734375 L 23 52.835938 L 24.523438 52.835938 L 25.015625 52.933594 L 26.144531 52.933594 L 26.636719 52.835938 L 27.714844 52.835938 C 27.914062 52.835938 28.011719 52.785156 28.058594 52.6875 L 28.550781 52.6875 C 28.707031 52.699219 28.835938 52.648438 28.945312 52.535156 C 28.894531 52.585938 28.945312 52.585938 28.992188 52.636719 L 29.191406 52.636719 L 29.191406 52.535156 C 29.191406 52.488281 29.191406 52.488281 29.289062 52.4375 C 29.386719 52.386719 29.582031 52.386719 29.632812 52.488281 L 29.828125 52.488281 L 29.976562 52.386719 C 30.074219 52.386719 30.074219 52.386719 30.074219 52.4375 L 30.417969 52.4375 L 30.664062 52.339844 L 31.054688 52.140625 C 31.105469 52.289062 31.253906 52.339844 31.695312 52.238281 L 32.332031 52.042969 L 32.921875 52.042969 C 33.363281 51.992188 33.90625 52.042969 34.25 51.695312 L 34.347656 51.695312 L 34.542969 51.546875 L 35.082031 51.398438 C 35.433594 51.324219 35.761719 51.191406 36.066406 51 L 36.261719 50.902344 L 36.3125 50.902344 L 36.753906 50.601562 L 36.949219 50.503906 L 37.195312 50.40625 L 37.390625 50.40625 C 37.589844 50.355469 37.589844 50.355469 37.636719 50.207031 C 37.6875 50.058594 37.636719 50.15625 37.539062 50.15625 L 37.492188 50.15625 L 37.6875 49.910156 L 37.785156 49.910156 C 37.933594 49.859375 38.03125 49.808594 38.128906 49.859375 L 38.226562 49.859375 C 38.457031 49.792969 38.605469 49.644531 38.667969 49.414062 C 38.816406 49.214844 39.210938 49.316406 39.308594 49.015625 L 41.417969 47.480469 C 41.960938 47.429688 42.105469 46.933594 42.5 46.636719 C 42.894531 46.339844 43.628906 46.09375 43.972656 45.546875 L 44.414062 45.347656 L 44.464844 45.347656 C 44.59375 45.378906 44.714844 45.363281 44.828125 45.296875 C 44.941406 45.226562 45.019531 45.128906 45.054688 45 L 45.054688 45.199219 C 45.445312 45 45.9375 45.347656 46.332031 44.953125 C 46.722656 44.554688 46.332031 43.613281 46.824219 43.066406 L 47.167969 42.820312 C 47.539062 42.171875 47.785156 41.476562 47.902344 40.738281 L 48 40.636719 C 48 40.488281 48 40.292969 48.199219 40.191406 C 48.289062 40.121094 48.34375 40.027344 48.363281 39.914062 C 48.378906 39.800781 48.359375 39.695312 48.296875 39.597656 L 48.199219 39.597656 C 48.226562 39.546875 48.226562 39.5 48.199219 39.449219 C 48.542969 39.449219 48.589844 39.101562 48.785156 38.953125 L 48.785156 38.257812 C 48.78125 38.226562 48.78125 38.191406 48.785156 38.160156 C 48.8125 38.046875 48.832031 37.929688 48.835938 37.8125 Z M 3.109375 16.046875 Z M 3.109375 16.046875 " fill-opacity="1" fill-rule="nonzero"/></g><g clip-path="url(#80eac8f8b8)"><path fill="#ff4a3f" d="M 13.179688 4.695312 L 13.03125 4.792969 L 12.835938 4.945312 L 13.078125 4.84375 Z M 16.175781 3.703125 L 16.222656 3.703125 L 16.371094 3.605469 L 16.175781 3.605469 Z M 14.898438 4.199219 L 14.847656 4.25 L 14.898438 4.25 Z M 14.160156 4.894531 Z M 14.796875 4.792969 Z M 11.703125 6.332031 Z M 4.730469 13.074219 L 4.535156 13.273438 L 4.632812 13.273438 C 4.707031 13.226562 4.742188 13.164062 4.730469 13.074219 Z M 6.203125 11.339844 C 6.269531 11.246094 6.316406 11.148438 6.351562 11.042969 C 6.25 11.105469 6.167969 11.1875 6.105469 11.289062 C 6.054688 11.339844 6.054688 11.386719 6.105469 11.386719 Z M 5.613281 12.082031 L 5.613281 11.984375 C 5.515625 11.984375 5.367188 12.132812 5.222656 12.132812 L 5.222656 12.230469 C 5.367188 12.378906 5.417969 12.332031 5.613281 12.082031 Z M 7.085938 44.902344 Z M 36.507812 4.644531 L 36.558594 4.644531 L 36.3125 4.496094 Z M 35.28125 3.953125 C 35.527344 3.902344 35.671875 4.148438 35.871094 4.199219 L 35.917969 4.199219 L 35.769531 4.101562 L 35.28125 3.851562 L 34.738281 3.605469 L 34.886719 3.703125 Z M 26.144531 1.621094 Z M 31.890625 2.613281 L 31.84375 2.613281 L 31.253906 2.515625 L 31.5 2.515625 Z M 32.875 2.960938 L 33.511719 3.160156 C 33.3125 3.046875 33.101562 2.980469 32.875 2.960938 Z M 28.453125 2.960938 C 28.507812 2.886719 28.542969 2.804688 28.550781 2.710938 L 28.304688 2.710938 L 28.160156 2.859375 L 28.355469 3.011719 Z M 32.875 3.753906 Z M 24.71875 2.167969 Z M 26.144531 2.515625 Z M 24.03125 2.066406 Z M 30.808594 3.109375 C 30.808594 3.125 30.808594 3.140625 30.808594 3.160156 Z M 52.816406 29.039062 L 52.667969 29.039062 L 52.667969 28.839844 L 52.816406 28.839844 C 52.863281 28.839844 52.914062 28.691406 52.863281 28.640625 C 52.816406 28.589844 52.816406 28.292969 52.714844 28.246094 C 52.648438 28.21875 52.613281 28.171875 52.617188 28.09375 L 52.714844 27.898438 C 52.726562 27.863281 52.726562 27.832031 52.714844 27.796875 L 52.617188 27.796875 L 52.519531 27.648438 C 52.46875 27.796875 52.421875 27.945312 52.324219 27.996094 C 52.316406 28.03125 52.316406 28.0625 52.324219 28.09375 C 52.324219 28.144531 52.324219 28.195312 52.273438 28.195312 L 52.226562 28.195312 C 52.214844 28.246094 52.199219 28.296875 52.175781 28.34375 C 52.078125 28.476562 52.011719 28.625 51.980469 28.789062 C 51.957031 28.867188 51.972656 28.933594 52.027344 28.988281 L 52.078125 28.988281 C 52.03125 29.117188 52.011719 29.25 52.027344 29.382812 L 52.027344 29.582031 C 52.023438 29.667969 52.007812 29.75 51.980469 29.832031 L 51.929688 29.832031 L 51.734375 30.179688 L 51.734375 30.476562 C 51.757812 30.675781 51.710938 30.859375 51.585938 31.019531 L 51.488281 31.019531 L 51.390625 30.921875 C 51.308594 30.796875 51.292969 30.664062 51.339844 30.523438 C 51.394531 30.246094 51.410156 29.964844 51.390625 29.683594 C 51.390625 29.632812 51.339844 29.582031 51.339844 29.582031 C 51.308594 29.628906 51.292969 29.675781 51.292969 29.730469 L 51.292969 30.027344 C 51.292969 30.128906 51.242188 30.328125 51.144531 30.375 C 51.046875 30.425781 51.09375 30.476562 51.09375 30.523438 L 50.996094 30.824219 L 51.144531 31.070312 C 51.046875 31.167969 50.949219 31.121094 50.898438 31.019531 L 50.898438 31.515625 L 51.046875 31.515625 L 51.046875 31.714844 C 50.957031 31.9375 50.910156 32.167969 50.898438 32.410156 C 50.894531 32.476562 50.894531 32.542969 50.898438 32.605469 C 50.902344 32.828125 50.867188 33.042969 50.800781 33.25 C 50.785156 33.351562 50.785156 33.449219 50.800781 33.550781 L 50.652344 33.894531 C 50.617188 34.019531 50.570312 34.132812 50.507812 34.242188 L 50.359375 34.539062 L 49.917969 35.878906 C 50.0625 36.324219 49.71875 36.621094 49.523438 36.921875 C 49.582031 37.367188 49.453125 37.746094 49.128906 38.0625 L 49.128906 38.257812 C 49.128906 38.308594 49.179688 38.359375 49.277344 38.308594 L 49.472656 38.160156 L 49.574219 37.960938 L 49.671875 37.960938 C 49.71875 38.011719 49.769531 38.011719 49.867188 37.910156 L 49.964844 37.910156 C 50.058594 38 50.074219 38.097656 50.015625 38.210938 C 49.980469 38.339844 49.964844 38.472656 49.964844 38.605469 C 49.964844 38.65625 49.964844 38.703125 50.015625 38.703125 L 50.113281 38.703125 C 50.164062 38.753906 50.210938 38.703125 50.261719 38.554688 L 50.359375 38.308594 L 50.507812 38.308594 C 50.703125 38.257812 50.703125 38.257812 50.800781 38.011719 L 51.046875 37.566406 L 51.195312 37.265625 L 51.390625 36.773438 C 51.382812 36.589844 51.433594 36.425781 51.539062 36.277344 C 51.613281 36.1875 51.628906 36.085938 51.585938 35.976562 C 51.585938 35.878906 51.585938 35.828125 51.683594 35.679688 L 51.832031 35.484375 L 52.078125 34.988281 C 52.097656 34.835938 52.128906 34.6875 52.175781 34.539062 C 52.273438 34.335938 52.324219 34.121094 52.324219 33.894531 C 52.355469 33.742188 52.402344 33.59375 52.46875 33.449219 L 52.46875 33.203125 C 52.421875 33.101562 52.421875 33.101562 52.46875 32.90625 C 52.519531 32.707031 52.519531 32.804688 52.570312 32.804688 C 52.605469 32.847656 52.621094 32.898438 52.617188 32.953125 L 52.714844 32.707031 C 52.777344 32.5625 52.8125 32.414062 52.816406 32.261719 L 52.816406 32.113281 C 52.816406 32.0625 52.816406 31.960938 52.765625 31.960938 L 52.765625 32.160156 C 52.667969 32.160156 52.617188 32.261719 52.519531 32.308594 C 52.542969 32.179688 52.5625 32.046875 52.570312 31.914062 L 52.765625 31.8125 C 52.847656 31.730469 52.878906 31.632812 52.863281 31.515625 C 52.859375 31.46875 52.859375 31.417969 52.863281 31.367188 C 52.929688 31.140625 52.964844 30.910156 52.960938 30.671875 L 52.960938 30.574219 L 53.109375 30.078125 L 53.160156 30.078125 C 53.207031 30.039062 53.222656 29.988281 53.207031 29.929688 L 53.160156 29.929688 C 53.125 29.78125 53.15625 29.648438 53.257812 29.535156 C 53.191406 29.292969 53.042969 29.128906 52.816406 29.039062 Z M 52.226562 32.90625 Z M 52.125 27.996094 Z M 52.125 27.996094 Z M 4.679688 15.355469 C 4.691406 15.320312 4.691406 15.289062 4.679688 15.253906 L 4.582031 15.15625 L 4.484375 15.253906 L 4.335938 15.554688 C 4.335938 15.703125 4.191406 15.851562 4.191406 16 L 4.191406 16.097656 L 4.238281 16.097656 Z M 51.980469 27.648438 L 52.027344 27.648438 C 52.136719 27.464844 52.167969 27.265625 52.125 27.054688 C 52.105469 26.949219 52.140625 26.867188 52.226562 26.808594 L 52.273438 26.808594 L 52.273438 26.707031 L 52.175781 26.609375 L 52.125 26.609375 C 52.078125 26.65625 52.027344 26.757812 51.980469 26.757812 C 51.929688 26.757812 51.929688 26.808594 51.929688 26.90625 L 51.929688 27.054688 C 51.890625 27.257812 51.90625 27.457031 51.980469 27.648438 Z M 6.695312 44.753906 C 6.644531 44.753906 6.695312 44.851562 6.695312 44.902344 L 7.085938 45.296875 L 7.136719 45.296875 C 7.039062 45.148438 6.988281 45 7.039062 44.953125 C 6.945312 44.945312 6.863281 44.910156 6.792969 44.851562 Z M 7.085938 44.902344 Z M 52.421875 27.203125 L 52.46875 27.203125 C 52.484375 27.105469 52.484375 27.003906 52.46875 26.90625 C 52.324219 26.957031 52.324219 26.957031 52.324219 27.203125 C 52.324219 27.453125 52.371094 27.253906 52.421875 27.203125 Z M 52.421875 27.203125 " fill-opacity="1" fill-rule="nonzero"/></g><path fill="#ff4a3f" d="M 52.617188 30.824219 C 52.671875 30.746094 52.6875 30.664062 52.667969 30.574219 C 52.667969 30.523438 52.617188 30.476562 52.617188 30.523438 L 52.519531 30.523438 L 52.519531 30.625 C 52.519531 30.824219 52.570312 30.871094 52.617188 30.824219 Z M 52.667969 26.757812 L 52.617188 26.757812 L 52.617188 27.054688 C 52.664062 26.960938 52.683594 26.863281 52.667969 26.757812 Z M 8.609375 45.992188 L 8.511719 45.992188 L 8.511719 46.09375 L 8.609375 46.191406 L 8.707031 46.191406 L 8.707031 46.09375 Z M 51.144531 29.484375 C 51.144531 29.433594 51.144531 29.433594 51.09375 29.433594 Z M 5.074219 42.96875 L 5.320312 43.214844 L 5.121094 42.917969 Z M 5.074219 42.96875 " fill-opacity="1" fill-rule="nonzero"/><path fill="#ff4a3f" d="M 4.976562 15.007812 L 4.925781 15.007812 L 4.925781 15.105469 L 4.925781 15.007812 Z M 45.839844 11.734375 L 45.742188 11.585938 L 45.691406 11.585938 Z M 38.621094 49.957031 Z M 3.109375 16.046875 Z M 3.058594 16.148438 C 3.089844 16.121094 3.105469 16.089844 3.109375 16.046875 L 3.109375 16.148438 Z M 3.992188 13.71875 Z M 30.417969 1.273438 Z M 51.4375 30.128906 L 51.4375 30.179688 Z M 8.265625 45.941406 L 8.21875 45.941406 C 8.265625 45.992188 8.316406 45.941406 8.265625 45.894531 Z M 8.363281 46.289062 L 8.414062 46.289062 L 8.363281 46.242188 Z M 44.660156 10.941406 Z M 52.125 27.996094 Z M 7.382812 45.546875 Z M 52.617188 27.203125 Z M 52.226562 32.855469 Z M 17.207031 0.0859375 Z M 17.207031 0.0859375 " fill-opacity="1" fill-rule="nonzero"/><path fill="#ffffff" d="M 25.199219 16.257812 L 24.835938 21.148438 C 24.742188 23.222656 27.804688 23.40625 27.941406 21.378906 L 28.214844 16.441406 C 28.351562 14.414062 25.292969 14.183594 25.199219 16.257812 Z M 14.78125 9.9375 C 14.828125 9.9375 38.179688 9.570312 38.269531 9.707031 C 39.734375 11 39.367188 41.765625 38.40625 42.644531 C 37.949219 43.011719 33.105469 43.289062 27.894531 43.335938 C 26.9375 38.90625 27.667969 33.738281 27.667969 33.738281 C 27.941406 31.664062 24.878906 31.296875 24.652344 33.277344 C 24.652344 33.324219 23.921875 38.492188 24.835938 43.382812 C 19.625 43.335938 14.917969 43.105469 14.644531 42.644531 C 13.730469 40.980469 14.644531 10.03125 14.78125 9.9375 Z M 14.78125 9.9375 " fill-opacity="1" fill-rule="nonzero"/><g clip-path="url(#2926f208dd)"><g clip-path="url(#1c28de4f59)"><path fill="#ff4a3f" d="M 4.46875 34.757812 L 12.425781 34.757812 L 12.425781 42.5625 L 4.46875 42.5625 Z M 4.46875 34.757812 " fill-opacity="1" fill-rule="nonzero"/></g></g><g clip-path="url(#4ec9b37f7c)"><g clip-path="url(#ff63ed5014)"><g mask="url(#cb02b69a4b)"><g transform="matrix(1, 0, 0, 1, 14, 24)"><g clip-path="url(#e6712c4def)"><g clip-path="url(#6659dcce48)"><g clip-path="url(#dfd463aeb0)"><rect x="-25.88" width="77.76" fill="#ff4a3f" height="77.760001" y="-35.88" fill-opacity="1"/></g></g></g></g></g></g></g><g clip-path="url(#c76143a4ef)"><g clip-path="url(#f5a3a4b635)"><path fill="#ff4a3f" d="M 10.578125 14.652344 L 44.09375 14.652344 L 44.09375 30.339844 L 10.578125 30.339844 Z M 10.578125 14.652344 " fill-opacity="1" fill-rule="nonzero"/></g></g><g clip-path="url(#5cdbba31d9)"><g clip-path="url(#dc7734336c)"><path fill="#ff4a3f" d="M 6.527344 1.546875 L 47.914062 1.546875 L 47.914062 49.394531 L 6.527344 49.394531 Z M 6.527344 1.546875 " fill-opacity="1" fill-rule="nonzero"/></g></g><g clip-path="url(#271a6d403e)"><g clip-path="url(#9673ed1dcf)"><path fill="#ff4a3f" d="M 14.261719 11.488281 L 41.359375 11.488281 L 41.359375 38.585938 L 14.261719 38.585938 Z M 14.261719 11.488281 " fill-opacity="1" fill-rule="nonzero"/></g></g><g fill="#ffffff" fill-opacity="1"><g transform="translate(10.173134, 40.173589)"><g><path d="M 6.75 -23.78125 C 6.75 -23.96875 6.675781 -24.132812 6.53125 -24.28125 C 6.394531 -24.4375 6.234375 -24.515625 6.046875 -24.515625 L 1.484375 -24.625 C 1.015625 -24.625 0.765625 -24.398438 0.734375 -23.953125 L -0.359375 -0.734375 C -0.359375 -0.523438 -0.285156 -0.351562 -0.140625 -0.21875 C 0.00390625 -0.0703125 0.179688 0 0.390625 0 L 13.921875 -0.671875 C 14.390625 -0.671875 14.625 -0.90625 14.625 -1.375 L 14.734375 -6.46875 C 14.734375 -6.675781 14.660156 -6.847656 14.515625 -6.984375 C 14.378906 -7.128906 14.203125 -7.203125 13.984375 -7.203125 L 5.90625 -7.09375 Z M 5.1875 -22.859375 L 5.125 -22.71875 L 5.046875 -22.75 L 5.125 -22.859375 Z M 6.28125 -16.421875 L 6.21875 -16.390625 C 6.144531 -16.390625 6.109375 -16.414062 6.109375 -16.46875 C 6.085938 -16.46875 6.078125 -16.476562 6.078125 -16.5 C 6.078125 -16.59375 6.125 -16.640625 6.21875 -16.640625 C 6.257812 -16.640625 6.28125 -16.628906 6.28125 -16.609375 L 6.359375 -16.609375 L 6.359375 -16.46875 Z M 5.265625 -15.1875 C 5.285156 -15.1875 5.285156 -15.164062 5.265625 -15.125 C 5.210938 -15.070312 5.175781 -15.046875 5.15625 -15.046875 L 4.953125 -15.046875 L 4.953125 -15.21875 Z M 3.921875 -13.359375 C 3.921875 -13.359375 3.914062 -13.347656 3.90625 -13.328125 C 3.894531 -13.316406 3.890625 -13.3125 3.890625 -13.3125 C 3.859375 -13.289062 3.828125 -13.285156 3.796875 -13.296875 C 3.765625 -13.304688 3.75 -13.328125 3.75 -13.359375 C 3.75 -13.359375 3.738281 -13.367188 3.71875 -13.390625 C 3.707031 -13.410156 3.691406 -13.421875 3.671875 -13.421875 L 3.8125 -13.5 L 3.921875 -13.5 Z M 2.890625 -8.40625 C 2.890625 -8.332031 2.832031 -8.253906 2.71875 -8.171875 C 2.601562 -8.097656 2.5 -8.0625 2.40625 -8.0625 C 2.238281 -8.0625 2.144531 -8.082031 2.125 -8.125 L 2.078125 -8.265625 C 2.078125 -8.335938 2.113281 -8.421875 2.1875 -8.515625 C 2.28125 -8.609375 2.375 -8.65625 2.46875 -8.65625 C 2.519531 -8.65625 2.601562 -8.628906 2.71875 -8.578125 C 2.832031 -8.535156 2.890625 -8.476562 2.890625 -8.40625 Z M 2.6875 -5.046875 C 2.632812 -5.046875 2.597656 -5.0625 2.578125 -5.09375 L 2.40625 -5.09375 L 2.40625 -5.265625 L 2.6875 -5.234375 Z M 4.734375 -4.875 L 4.734375 -4.953125 L 5.015625 -4.90625 L 5.015625 -4.796875 Z M 8.484375 -4.765625 C 8.484375 -4.742188 8.460938 -4.710938 8.421875 -4.671875 C 8.390625 -4.640625 8.347656 -4.625 8.296875 -4.625 C 8.160156 -4.625 8.066406 -4.660156 8.015625 -4.734375 L 8.125 -4.875 L 8.375 -4.875 Z M 6.859375 -4.34375 L 6.859375 -4.3125 L 6.78125 -4.28125 L 6.78125 -4.203125 L 6.671875 -4.203125 C 6.628906 -4.203125 6.597656 -4.210938 6.578125 -4.234375 C 6.597656 -4.304688 6.644531 -4.351562 6.71875 -4.375 L 6.921875 -4.375 Z M 6.140625 -4.234375 C 6.191406 -4.210938 6.203125 -4.179688 6.171875 -4.140625 C 6.148438 -4.109375 6.117188 -4.09375 6.078125 -4.09375 C 6.023438 -4.144531 6 -4.179688 6 -4.203125 L 6 -4.3125 Z M 7.625 -4.140625 L 7.421875 -4.203125 L 7.453125 -4.3125 L 7.703125 -4.234375 Z M 3.46875 -3.953125 C 3.375 -3.953125 3.328125 -3.929688 3.328125 -3.890625 L 3.21875 -3.953125 C 3.1875 -3.953125 3.171875 -3.976562 3.171875 -4.03125 C 3.171875 -4.125 3.222656 -4.171875 3.328125 -4.171875 L 3.390625 -4.140625 C 3.390625 -4.109375 3.414062 -4.09375 3.46875 -4.09375 Z M 4.234375 -3.53125 C 4.191406 -3.53125 4.132812 -3.507812 4.0625 -3.46875 C 4.039062 -3.601562 4.039062 -3.71875 4.0625 -3.8125 C 4.113281 -3.8125 4.148438 -3.800781 4.171875 -3.78125 L 4.234375 -3.78125 Z M 7.625 -3.78125 C 7.75 -3.78125 7.859375 -3.707031 7.953125 -3.5625 C 7.953125 -3.5 7.894531 -3.441406 7.78125 -3.390625 C 7.675781 -3.347656 7.59375 -3.328125 7.53125 -3.328125 C 7.34375 -3.328125 7.25 -3.40625 7.25 -3.5625 C 7.25 -3.632812 7.304688 -3.679688 7.421875 -3.703125 Z M 4.0625 -3.140625 C 4.0625 -3.140625 4.054688 -3.144531 4.046875 -3.15625 C 4.035156 -3.164062 4.03125 -3.171875 4.03125 -3.171875 C 4.03125 -3.222656 4.015625 -3.25 3.984375 -3.25 C 3.960938 -3.269531 3.941406 -3.285156 3.921875 -3.296875 C 3.898438 -3.316406 3.890625 -3.335938 3.890625 -3.359375 C 3.929688 -3.359375 3.960938 -3.367188 3.984375 -3.390625 C 4.015625 -3.410156 4.046875 -3.410156 4.078125 -3.390625 C 4.117188 -3.367188 4.140625 -3.347656 4.140625 -3.328125 C 4.140625 -3.273438 4.160156 -3.25 4.203125 -3.25 Z M 7.421875 -2.71875 C 7.421875 -2.769531 7.457031 -2.804688 7.53125 -2.828125 L 7.671875 -2.828125 L 7.671875 -2.796875 L 7.734375 -2.75 L 7.671875 -2.6875 Z M 1.84375 -2.609375 C 1.9375 -2.703125 2.050781 -2.75 2.1875 -2.75 L 2.328125 -2.71875 L 2.40625 -2.6875 L 2.265625 -2.546875 Z M 1.703125 -2.578125 L 1.625 -2.546875 L 1.59375 -2.609375 L 1.65625 -2.609375 Z M 13.390625 -2.359375 C 13.335938 -2.316406 13.3125 -2.332031 13.3125 -2.40625 C 13.3125 -2.476562 13.335938 -2.515625 13.390625 -2.515625 C 13.410156 -2.515625 13.425781 -2.492188 13.4375 -2.453125 C 13.445312 -2.421875 13.429688 -2.390625 13.390625 -2.359375 Z M 4.703125 -2.265625 C 4.671875 -2.234375 4.632812 -2.21875 4.59375 -2.21875 C 4.539062 -2.21875 4.515625 -2.195312 4.515625 -2.15625 C 4.472656 -2.195312 4.441406 -2.21875 4.421875 -2.21875 C 4.390625 -2.21875 4.375 -2.253906 4.375 -2.328125 C 4.375 -2.378906 4.390625 -2.40625 4.421875 -2.40625 C 4.421875 -2.40625 4.425781 -2.410156 4.4375 -2.421875 C 4.445312 -2.429688 4.453125 -2.4375 4.453125 -2.4375 L 4.625 -2.4375 L 4.703125 -2.40625 Z M 8.4375 -2.015625 C 8.375 -1.992188 8.296875 -1.984375 8.203125 -1.984375 C 8.171875 -2.003906 8.140625 -2.007812 8.109375 -2 C 8.078125 -1.988281 8.046875 -1.984375 8.015625 -1.984375 L 7.875 -1.984375 L 7.875 -2.078125 C 7.894531 -2.128906 7.9375 -2.171875 8 -2.203125 C 8.0625 -2.242188 8.128906 -2.265625 8.203125 -2.265625 C 8.222656 -2.265625 8.253906 -2.238281 8.296875 -2.1875 L 8.4375 -2.125 Z M 2.015625 -2.15625 L 1.84375 -2.078125 L 1.84375 -2.15625 L 1.984375 -2.1875 Z M 5.578125 -2.078125 C 5.578125 -2.035156 5.539062 -2.015625 5.46875 -2.015625 C 5.40625 -2.015625 5.347656 -2.003906 5.296875 -1.984375 L 5.296875 -2.046875 C 5.296875 -2.046875 5.296875 -2.070312 5.296875 -2.125 L 5.4375 -2.078125 Z M 4.65625 -1.90625 C 4.632812 -1.882812 4.601562 -1.875 4.5625 -1.875 L 4.5625 -1.984375 L 4.703125 -1.9375 Z M 4.65625 -1.90625 "/></g></g></g><g fill="#ffffff" fill-opacity="1"><g transform="translate(26.142243, 40.173589)"><g><path d="M 16.640625 -3.609375 C 16.710938 -3.515625 16.75 -3.394531 16.75 -3.25 C 16.75 -3.039062 16.628906 -2.851562 16.390625 -2.6875 L 12.5 -0.140625 C 12.363281 -0.0234375 12.175781 0.0078125 11.9375 -0.03125 C 11.707031 -0.101562 11.554688 -0.234375 11.484375 -0.421875 C 10.566406 -2.453125 9.941406 -3.722656 9.609375 -4.234375 L 9.609375 -4.28125 C 8.953125 -5.457031 8.445312 -6.335938 8.09375 -6.921875 L 7.484375 -7.90625 L 5.515625 -7.390625 L 5.40625 -0.953125 C 5.40625 -0.484375 5.171875 -0.25 4.703125 -0.25 L 0.359375 -0.25 C 0.140625 -0.25 -0.03125 -0.316406 -0.15625 -0.453125 C -0.289062 -0.597656 -0.359375 -0.773438 -0.359375 -0.984375 L 1.09375 -22.859375 C 1.113281 -23.234375 1.316406 -23.457031 1.703125 -23.53125 L 7.03125 -24.203125 L 7.0625 -24.203125 L 8.0625 -24.3125 C 9 -24.40625 9.726562 -24.453125 10.25 -24.453125 C 11.28125 -24.453125 12.175781 -24.359375 12.9375 -24.171875 C 14.269531 -23.878906 15.289062 -23.15625 16 -22 C 16.707031 -20.851562 17.0625 -19.503906 17.0625 -17.953125 C 17.0625 -16.773438 16.863281 -15.582031 16.46875 -14.375 C 16.0625 -13.25 15.410156 -12.226562 14.515625 -11.3125 C 13.972656 -10.8125 13.515625 -10.429688 13.140625 -10.171875 Z M 8.96875 -22.359375 L 8.96875 -22.4375 L 8.65625 -22.4375 L 8.65625 -22.359375 Z M 8.6875 -22.109375 L 8.6875 -22.015625 L 8.875 -22.015625 C 8.875 -22.035156 8.894531 -22.066406 8.9375 -22.109375 L 8.96875 -22.15625 L 8.71875 -22.15625 Z M 10.453125 -21.96875 C 10.453125 -22 10.429688 -22.015625 10.390625 -22.015625 C 10.335938 -22.015625 10.3125 -22.035156 10.3125 -22.078125 L 10.3125 -21.90625 Z M 9.828125 -21.828125 L 9.890625 -21.90625 L 9.828125 -21.90625 L 9.75 -21.828125 Z M 9.078125 -21.765625 C 9.128906 -21.765625 9.15625 -21.753906 9.15625 -21.734375 C 9.15625 -21.703125 9.164062 -21.6875 9.1875 -21.6875 C 9.226562 -21.6875 9.25 -21.703125 9.25 -21.734375 L 9.25 -21.765625 Z M 8.34375 -21.578125 C 8.195312 -21.460938 8.171875 -21.347656 8.265625 -21.234375 L 8.515625 -21.234375 L 8.515625 -21.265625 C 8.515625 -21.359375 8.457031 -21.460938 8.34375 -21.578125 Z M 12.125 -21.578125 C 12.09375 -21.554688 12.09375 -21.519531 12.125 -21.46875 C 12.164062 -21.425781 12.210938 -21.40625 12.265625 -21.40625 C 12.285156 -21.40625 12.296875 -21.429688 12.296875 -21.484375 C 12.296875 -21.484375 12.304688 -21.488281 12.328125 -21.5 C 12.347656 -21.507812 12.359375 -21.523438 12.359375 -21.546875 Z M 11.484375 -21.515625 C 11.367188 -21.398438 11.296875 -21.316406 11.265625 -21.265625 L 11.3125 -21.265625 L 11.34375 -21.234375 L 11.375 -21.234375 C 11.488281 -21.304688 11.546875 -21.363281 11.546875 -21.40625 C 11.546875 -21.425781 11.523438 -21.460938 11.484375 -21.515625 Z M 2.328125 -21.234375 L 2.328125 -21.40625 L 2.265625 -21.40625 L 2.265625 -21.234375 Z M 9.75 -21.40625 C 9.75 -21.40625 9.703125 -21.359375 9.609375 -21.265625 L 9.96875 -21.234375 L 10.03125 -21.34375 L 9.890625 -21.375 C 9.890625 -21.394531 9.84375 -21.40625 9.75 -21.40625 Z M 10.25 -21.34375 C 10.25 -21.289062 10.257812 -21.253906 10.28125 -21.234375 L 10.3125 -21.15625 L 10.53125 -21.15625 L 10.53125 -21.34375 Z M 13.21875 -21.234375 L 13.21875 -21.34375 L 13.078125 -21.34375 L 13.078125 -21.234375 Z M 8.265625 -20.984375 L 8.234375 -21.0625 L 8.125 -20.984375 L 8.125 -20.921875 Z M 10.875 -20.921875 C 10.925781 -20.960938 10.925781 -20.984375 10.875 -20.984375 L 10.8125 -21.0625 C 10.757812 -21.007812 10.734375 -20.984375 10.734375 -20.984375 L 10.734375 -20.921875 Z M 9.75 -20.765625 L 9.828125 -20.765625 L 9.828125 -20.921875 L 9.75 -20.921875 Z M 10.25 -20.625 C 10.195312 -20.582031 10.125 -20.535156 10.03125 -20.484375 L 9.890625 -20.390625 L 10.25 -20.390625 Z M 11.015625 -20.53125 C 10.972656 -20.570312 10.859375 -20.59375 10.671875 -20.59375 C 10.671875 -20.570312 10.6875 -20.554688 10.71875 -20.546875 C 10.757812 -20.535156 10.789062 -20.515625 10.8125 -20.484375 C 10.8125 -20.484375 10.859375 -20.472656 10.953125 -20.453125 L 10.984375 -20.453125 L 10.984375 -20.484375 Z M 11.546875 -20.421875 C 11.523438 -20.421875 11.503906 -20.414062 11.484375 -20.40625 C 11.460938 -20.394531 11.4375 -20.390625 11.40625 -20.390625 L 11.484375 -20.203125 L 11.625 -20.28125 L 11.6875 -20.34375 Z M 13.359375 -20.0625 C 13.359375 -20.15625 13.296875 -20.25 13.171875 -20.34375 L 13.171875 -20 Z M 11.734375 -20.203125 C 11.640625 -20.160156 11.59375 -20.113281 11.59375 -20.0625 C 11.59375 -20.019531 11.640625 -20 11.734375 -20 L 11.90625 -19.953125 C 11.945312 -20.078125 11.945312 -20.195312 11.90625 -20.3125 Z M 7.203125 -20.0625 C 7.253906 -19.96875 7.28125 -19.898438 7.28125 -19.859375 L 7.34375 -19.640625 L 7.484375 -19.71875 L 7.453125 -19.8125 L 7.421875 -19.890625 L 7.421875 -20 C 7.421875 -20.039062 7.457031 -20.0625 7.53125 -20.0625 Z M 11.9375 -19.8125 C 11.84375 -19.863281 11.773438 -19.890625 11.734375 -19.890625 L 11.6875 -19.71875 L 11.734375 -19.671875 L 11.875 -19.671875 L 11.875 -19.71875 L 11.9375 -19.71875 Z M 13.5 -19.4375 C 13.5625 -19.457031 13.570312 -19.535156 13.53125 -19.671875 C 13.382812 -19.609375 13.28125 -19.539062 13.21875 -19.46875 Z M 13.78125 -19.359375 C 13.78125 -19.335938 13.800781 -19.300781 13.84375 -19.25 C 13.894531 -19.207031 13.929688 -19.1875 13.953125 -19.1875 C 13.929688 -19.28125 13.894531 -19.328125 13.84375 -19.328125 Z M 5.828125 -13.359375 C 7.003906 -13.515625 8 -13.78125 8.8125 -14.15625 C 9.625 -14.539062 10.253906 -15.164062 10.703125 -16.03125 C 11.078125 -16.832031 11.265625 -17.4375 11.265625 -17.84375 C 11.265625 -18.101562 11.21875 -18.328125 11.125 -18.515625 L 11.125 -18.546875 C 11.03125 -18.804688 10.757812 -18.992188 10.3125 -19.109375 L 9.859375 -19.140625 C 9.523438 -19.140625 9.179688 -19.09375 8.828125 -19 L 6.359375 -18.4375 Z M 12.71875 -18.578125 C 12.71875 -18.628906 12.707031 -18.664062 12.6875 -18.6875 L 12.546875 -18.71875 L 12.546875 -18.578125 Z M 12.6875 -18.15625 C 12.75 -18.226562 12.78125 -18.300781 12.78125 -18.375 L 12.640625 -18.375 L 12.5 -18.296875 C 12.457031 -18.253906 12.445312 -18.234375 12.46875 -18.234375 Z M 13.171875 -18.234375 C 13.296875 -18.234375 13.359375 -18.28125 13.359375 -18.375 L 13.171875 -18.375 Z M 15.796875 -17.875 C 15.796875 -17.800781 15.769531 -17.765625 15.71875 -17.765625 C 15.738281 -17.742188 15.765625 -17.734375 15.796875 -17.734375 C 15.835938 -17.734375 15.867188 -17.722656 15.890625 -17.703125 L 16.109375 -17.671875 C 16.109375 -17.710938 16.117188 -17.734375 16.140625 -17.734375 C 16.171875 -17.753906 16.1875 -17.789062 16.1875 -17.84375 C 16.1875 -17.9375 16.132812 -18.039062 16.03125 -18.15625 L 16.03125 -17.875 Z M 13.03125 -17.953125 C 13.03125 -17.921875 13.007812 -17.90625 12.96875 -17.90625 L 13.21875 -17.84375 L 13.171875 -17.90625 C 13.148438 -17.9375 13.117188 -17.953125 13.078125 -17.953125 Z M 13.171875 -17.59375 L 13.21875 -17.59375 L 13.109375 -17.703125 L 13.078125 -17.671875 Z M 16.109375 -17.59375 L 16.03125 -17.59375 L 16.03125 -16.78125 L 16.109375 -16.78125 Z M 16.078125 -16.03125 C 16.078125 -16.15625 16.132812 -16.265625 16.25 -16.359375 C 16.132812 -16.378906 16.078125 -16.4375 16.078125 -16.53125 C 16.097656 -16.582031 16.082031 -16.65625 16.03125 -16.75 L 16.03125 -14.234375 C 16.132812 -14.378906 16.1875 -14.519531 16.1875 -14.65625 L 16.140625 -15.078125 C 16.117188 -15.171875 16.109375 -15.289062 16.109375 -15.4375 C 16.109375 -15.53125 16.117188 -15.585938 16.140625 -15.609375 C 16.140625 -15.703125 16.117188 -15.820312 16.078125 -15.96875 Z M 12.4375 -16.109375 C 12.363281 -16.273438 12.234375 -16.359375 12.046875 -16.359375 Z M 12.71875 -15.828125 L 12.71875 -15.71875 L 13.03125 -15.71875 L 13.03125 -15.828125 Z M 12.125 -15.375 C 12.125 -15.394531 12.097656 -15.425781 12.046875 -15.46875 C 11.972656 -15.519531 11.914062 -15.546875 11.875 -15.546875 L 11.796875 -15.296875 Z M 3.390625 -14.84375 C 3.367188 -14.90625 3.320312 -14.972656 3.25 -15.046875 C 3.195312 -15.066406 3.171875 -15.113281 3.171875 -15.1875 C 3.128906 -15.113281 3.015625 -15.054688 2.828125 -15.015625 L 3.109375 -14.9375 C 3.203125 -14.894531 3.25 -14.863281 3.25 -14.84375 Z M 11.15625 -14.84375 C 11.1875 -14.84375 11.234375 -14.820312 11.296875 -14.78125 C 11.367188 -14.75 11.425781 -14.742188 11.46875 -14.765625 C 11.519531 -14.785156 11.5625 -14.820312 11.59375 -14.875 L 11.59375 -15.046875 L 11.3125 -15.078125 C 11.257812 -15.054688 11.21875 -15.039062 11.1875 -15.03125 C 11.164062 -15.019531 11.171875 -15.015625 11.203125 -15.015625 C 11.148438 -15.015625 11.125 -14.976562 11.125 -14.90625 Z M 2.609375 -14.984375 C 2.609375 -14.953125 2.632812 -14.914062 2.6875 -14.875 L 2.75 -14.90625 L 2.75 -14.9375 C 2.800781 -14.988281 2.828125 -15.023438 2.828125 -15.046875 L 2.609375 -15.046875 Z M 3.390625 -14.515625 C 3.347656 -14.546875 3.285156 -14.585938 3.203125 -14.640625 C 3.117188 -14.703125 3.039062 -14.734375 2.96875 -14.734375 L 2.828125 -14.65625 C 2.734375 -14.613281 2.660156 -14.566406 2.609375 -14.515625 L 2.75 -14.484375 C 2.800781 -14.429688 2.847656 -14.40625 2.890625 -14.40625 Z M 12.078125 -14.65625 L 12.015625 -14.515625 L 12.15625 -14.484375 L 12.21875 -14.625 Z M 9.828125 -14.171875 C 9.773438 -14.171875 9.722656 -14.148438 9.671875 -14.109375 C 9.628906 -14.078125 9.609375 -14.035156 9.609375 -13.984375 C 9.660156 -13.941406 9.734375 -13.921875 9.828125 -13.921875 L 9.828125 -13.75 C 9.867188 -13.75 9.984375 -13.78125 10.171875 -13.84375 C 10.078125 -13.914062 9.960938 -13.953125 9.828125 -13.953125 L 9.828125 -14.03125 C 9.867188 -14.070312 9.867188 -14.117188 9.828125 -14.171875 Z M 11.09375 -13.984375 L 11.015625 -14.125 L 10.8125 -13.921875 L 11.09375 -13.921875 Z M 2.6875 -14.0625 L 2.609375 -14.0625 L 2.6875 -13.8125 L 2.75 -13.8125 Z M 10.453125 -13.671875 C 10.523438 -13.785156 10.523438 -13.890625 10.453125 -13.984375 L 10.25 -13.984375 C 10.34375 -13.796875 10.410156 -13.691406 10.453125 -13.671875 Z M 2.6875 -13.75 L 2.609375 -13.59375 L 2.6875 -13.5625 L 2.75 -13.703125 Z M 3.609375 -13.671875 L 3.609375 -13.53125 L 3.78125 -13.53125 L 3.78125 -13.671875 Z M 8.265625 -13.640625 L 8.265625 -13.5 L 8.4375 -13.53125 Z M 10.171875 -13.53125 C 10.035156 -13.457031 9.921875 -13.375 9.828125 -13.28125 L 10.109375 -13.28125 L 10.671875 -13.140625 L 10.640625 -13.171875 L 10.59375 -13.25 L 10.59375 -13.28125 L 10.25 -13.28125 Z M 10.8125 -12.9375 C 10.851562 -12.9375 10.875 -12.945312 10.875 -12.96875 C 10.875 -13.039062 10.863281 -13.085938 10.84375 -13.109375 L 10.734375 -13.21875 C 10.617188 -13.070312 10.597656 -12.960938 10.671875 -12.890625 Z M 10.03125 -12.578125 C 10.082031 -12.578125 10.128906 -12.550781 10.171875 -12.5 C 10.316406 -12.625 10.390625 -12.71875 10.390625 -12.78125 L 10.34375 -12.859375 L 10.3125 -12.890625 C 10.289062 -12.921875 10.269531 -12.984375 10.25 -13.078125 L 10.171875 -13 L 10.109375 -13 L 10.03125 -12.9375 Z M 2.1875 -12.890625 C 2.164062 -12.890625 2.15625 -12.867188 2.15625 -12.828125 L 2.328125 -12.828125 C 2.328125 -12.847656 2.28125 -12.90625 2.1875 -13 Z M 11.375 -12.609375 L 11.375 -12.75 L 11.09375 -12.6875 L 11.09375 -12.578125 Z M 10.734375 -12.546875 C 10.546875 -12.546875 10.453125 -12.5 10.453125 -12.40625 C 10.453125 -12.332031 10.523438 -12.296875 10.671875 -12.296875 L 10.734375 -12.296875 Z M 3.25 -12.5 L 3.03125 -12.4375 L 3.03125 -12.40625 L 3.328125 -12.46875 Z M 7.765625 -12.21875 C 7.765625 -12.21875 7.8125 -12.265625 7.90625 -12.359375 L 7.765625 -12.46875 C 7.671875 -12.445312 7.625 -12.390625 7.625 -12.296875 Z M 10.875 -12.296875 C 10.738281 -12.222656 10.671875 -12.140625 10.671875 -12.046875 L 10.875 -12.046875 C 10.96875 -12.117188 10.96875 -12.203125 10.875 -12.296875 Z M 10.59375 -11.96875 C 10.59375 -12.039062 10.546875 -12.101562 10.453125 -12.15625 C 10.410156 -12.15625 10.363281 -12.132812 10.3125 -12.09375 C 10.269531 -12.0625 10.25 -12.035156 10.25 -12.015625 C 10.289062 -11.984375 10.359375 -11.96875 10.453125 -11.96875 Z M 11.484375 -11.90625 C 11.484375 -11.925781 11.457031 -11.9375 11.40625 -11.9375 C 11.40625 -11.9375 11.398438 -11.941406 11.390625 -11.953125 C 11.378906 -11.960938 11.375 -11.96875 11.375 -11.96875 L 11.3125 -12.015625 L 11.0625 -12.015625 C 11.101562 -11.921875 11.125 -11.828125 11.125 -11.734375 C 11.195312 -11.703125 11.257812 -11.703125 11.3125 -11.734375 L 11.484375 -11.734375 Z M 7.625 -11.453125 L 7.484375 -11.453125 L 7.484375 -11.375 L 7.625 -11.375 Z M 11.09375 -11.234375 C 11.1875 -11.234375 11.242188 -11.242188 11.265625 -11.265625 C 11.316406 -11.316406 11.34375 -11.351562 11.34375 -11.375 C 11.289062 -11.425781 11.179688 -11.453125 11.015625 -11.453125 Z M 7.625 -10.875 C 7.625 -10.832031 7.640625 -10.8125 7.671875 -10.8125 L 7.765625 -10.8125 C 7.796875 -10.925781 7.796875 -10.984375 7.765625 -10.984375 C 7.671875 -10.984375 7.625 -10.945312 7.625 -10.875 Z M 11.0625 -10.8125 C 10.9375 -10.695312 10.875 -10.59375 10.875 -10.5 L 10.953125 -10.453125 L 11.203125 -10.453125 L 11.125 -10.671875 Z M 11.234375 -10.421875 L 11.125 -10.28125 L 11.265625 -10.25 L 11.375 -10.390625 Z M 11.546875 -10.109375 C 11.671875 -10.109375 11.78125 -10.140625 11.875 -10.203125 L 11.546875 -10.28125 C 11.503906 -10.1875 11.503906 -10.128906 11.546875 -10.109375 Z M 11.0625 -10.203125 C 10.9375 -10.273438 10.828125 -10.265625 10.734375 -10.171875 C 10.785156 -10.128906 10.867188 -10.109375 10.984375 -10.109375 C 11.035156 -10.109375 11.0625 -10.128906 11.0625 -10.171875 Z M 7.84375 -9.578125 L 7.765625 -9.53125 L 7.8125 -9.46875 L 7.875 -9.46875 Z M 11.625 -8.203125 C 11.625 -8.265625 11.613281 -8.3125 11.59375 -8.34375 C 11.59375 -8.34375 11.582031 -8.332031 11.5625 -8.3125 C 11.550781 -8.300781 11.546875 -8.296875 11.546875 -8.296875 L 11.515625 -8.265625 L 11.484375 -8.265625 Z M 14.5625 -6.609375 C 14.601562 -6.609375 14.625 -6.644531 14.625 -6.71875 L 14.453125 -6.71875 Z M 14.734375 -6.390625 L 14.5625 -6.390625 L 14.5625 -6.1875 C 14.625 -6.113281 14.71875 -6.078125 14.84375 -6.078125 C 14.789062 -6.148438 14.765625 -6.21875 14.765625 -6.28125 Z M 14.90625 -5.65625 L 14.84375 -5.546875 L 14.90625 -5.515625 L 14.984375 -5.609375 Z M 15.4375 -4.203125 C 15.4375 -4.296875 15.363281 -4.351562 15.21875 -4.375 C 15.15625 -4.3125 15.125 -4.265625 15.125 -4.234375 C 15.125 -4.171875 15.148438 -4.109375 15.203125 -4.046875 C 15.265625 -3.984375 15.320312 -3.953125 15.375 -3.953125 L 15.40625 -4.0625 Z M 14.484375 -3.671875 C 14.535156 -3.671875 14.597656 -3.679688 14.671875 -3.703125 C 14.753906 -3.734375 14.820312 -3.769531 14.875 -3.8125 L 14.765625 -3.84375 L 14.65625 -3.921875 C 14.613281 -3.941406 14.53125 -3.953125 14.40625 -3.953125 C 14.363281 -3.953125 14.316406 -3.941406 14.265625 -3.921875 C 14.222656 -3.898438 14.203125 -3.863281 14.203125 -3.8125 C 14.296875 -3.71875 14.390625 -3.671875 14.484375 -3.671875 Z M 2.328125 -1.625 C 2.453125 -1.625 2.523438 -1.671875 2.546875 -1.765625 L 2.40625 -1.765625 C 2.40625 -1.671875 2.378906 -1.625 2.328125 -1.625 Z M 2.328125 -1.625 "/></g></g></g></svg>